<?xml version="1.0" encoding="utf-8"?>
<!-- Generator: Adobe Illustrator 21.1.0, SVG Export Plug-In . SVG Version: 6.00 Build 0)  -->
<svg version="1.1" id="Layer_1" xmlns="http://www.w3.org/2000/svg" xmlns:xlink="http://www.w3.org/1999/xlink" x="0px" y="0px"
	 viewBox="0 0 22 19" style="enable-background:new 0 0 22 19;" xml:space="preserve">
<path d="M12.2,0L4.4,5.3H0v8.4h4.4l7.8,5.3V0z M1.5,6.8h2.3v5.4H1.5V6.8z M10.7,16.2l-5.3-3.6V6.4l5.3-3.6V16.2z"/>
<path d="M15.4,4.6l-1.1,1c2.2,2.1,2.2,5.6,0,7.7l1.1,1C18.2,11.7,18.2,7.3,15.4,4.6L15.4,4.6z"/>
<path d="M18.7,17.2c4.4-4.3,4.4-11.2,0-15.4l-1.1,1c3.8,3.7,3.8,9.7,0,13.4L18.7,17.2z"/>
</svg>
